<svg width="20" height="20" viewBox="0 0 20 20" fill="none" xmlns="http://www.w3.org/2000/svg">
<path d="M5.78365 1.6665C6.1302 1.6665 6.41113 1.93668 6.41113 2.26995V3.48723C6.96772 3.47685 7.5916 3.47685 8.29358 3.47685H11.6401C12.3421 3.47685 12.966 3.47685 13.5226 3.48723V2.26995C13.5226 1.93668 13.8035 1.6665 14.1501 1.6665C14.4966 1.6665 14.7776 1.93668 14.7776 2.26995V3.54062C15.9818 3.63335 16.7723 3.86094 17.3531 4.41949C17.9339 4.97804 18.1705 5.73831 18.267 6.89639L18.3334 7.49984H2.43721H1.66675V6.89639C1.76318 5.73831 1.99983 4.97804 2.58063 4.41949C3.16142 3.86094 3.95196 3.63335 5.15617 3.54062V2.26995C5.15617 1.93668 5.4371 1.6665 5.78365 1.6665Z" fill="#0487B6"/>
<path opacity="0.5" d="M18.3333 11.6667V10.0001C18.3333 9.30087 18.3306 8.05439 18.3199 7.5H1.67471C1.66396 8.05439 1.66668 9.30087 1.66668 10.0001V11.6667C1.66668 14.8094 1.66668 16.3808 2.64299 17.3571C3.6193 18.3334 5.19065 18.3334 8.33334 18.3334H11.6667C14.8094 18.3334 16.3807 18.3334 17.357 17.3571C18.3333 16.3808 18.3333 14.8094 18.3333 11.6667Z" fill="#0487B6"/>
</svg>
