<svg width="20" height="21" viewBox="0 0 20 21" fill="none" xmlns="http://www.w3.org/2000/svg">
<path opacity="0.5" d="M19 10.5C19 14.7426 19 16.864 17.682 18.182C16.364 19.5 14.2426 19.5 10 19.5C5.75736 19.5 3.63604 19.5 2.31802 18.182C1 16.864 1 14.7426 1 10.5C1 6.25736 1 4.13604 2.31802 2.81802C3.63604 1.5 5.75736 1.5 10 1.5C14.2426 1.5 16.364 1.5 17.682 2.81802C19 4.13604 19 6.25736 19 10.5Z" fill="#0487B6" fill-opacity="0.5" stroke="#0487B6" stroke-width="1.5" stroke-linecap="round"/>
<path d="M14.7215 8.31748C15.1247 7.86806 15.0855 7.17844 14.6339 6.77717C14.1823 6.3759 13.4894 6.41494 13.0862 6.86436L8.68407 11.7711L7.41382 10.3553C7.01062 9.90584 6.31769 9.8668 5.86611 10.2681C5.41453 10.6693 5.3753 11.359 5.7785 11.8084L7.86641 14.1357C8.07438 14.3675 8.37181 14.5 8.68407 14.5C8.99633 14.5 9.29376 14.3675 9.50173 14.1357L14.7215 8.31748Z" fill="#0487B6"/>
</svg>
